<svg xmlns="http://www.w3.org/2000/svg" viewBox="0 0 200 200">
  <circle cx="100" cy="100" r="80" fill="none" stroke="#000" stroke-width="8"/>
  <path d="M70 70 L70 130 L90 130 Q110 130 110 110 Q110 100 100 95 Q110 95 110 80 Q110 70 90 70 Z M85 85 L90 85 Q95 85 95 90 Q95 95 90 95 L85 95 Z M85 105 L90 105 Q95 105 95 110 Q95 115 90 115 L85 115 Z" fill="#000"/>
  <path d="M120 70 L120 130 L135 130 L135 110 L145 110 Q160 110 160 90 Q160 70 145 70 Z M135 85 L145 85 Q145 85 145 90 Q145 95 145 95 L135 95 Z" fill="#000"/>
</svg>