
<svg xmlns="http://www.w3.org/2000/svg" viewBox="0 0 468 72" width="468" height="72">
  <g fill="#cc0000">
    <!-- Heart icon -->
    <path d="M24 0c-6.627 0-12 5.373-12 12 0 10.5 12 24 12 24s12-13.5 12-24c0-6.627-5.373-12-12-12z"/>
  </g>
  <g fill="#1a1a1a">
    <!-- CVS text -->
    <path d="M84 18.5c-9.941 0-18 8.059-18 18s8.059 18 18 18c5.523 0 10.477-2.488 13.789-6.404l-5.578-4.186c-1.988 2.354-4.955 3.84-8.211 3.84-5.941 0-10.75-4.809-10.75-10.75S78.059 26.25 84 26.25c3.256 0 6.223 1.486 8.211 3.84l5.578-4.186C94.477 20.988 89.523 18.5 84 18.5zm35.25 0L108 54.5h7.5l3.375-10.125h13.5L135.75 54.5h7.5L131.25 18.5h-12zm6 8.625l4.125 12.375h-8.25l4.125-12.375zm26.25-8.625c-7.594 0-13.5 5.906-13.5 13.5v4.5c0 7.594 5.906 13.5 13.5 13.5 4.5 0 8.531-2.203 11.016-5.578l-5.578-4.172c-1.266 1.688-3.281 2.75-5.438 2.75-3.797 0-6.75-2.953-6.75-6.75v-4.5c0-3.797 2.953-6.75 6.75-6.75 2.156 0 4.172 1.062 5.438 2.75l5.578-4.172C159.781 20.703 155.75 18.5 151.5 18.5z"/>
  </g>
  <g fill="#6b6b6b">
    <!-- pharmacy text -->
    <text x="190" y="45" font-family="Arial, sans-serif" font-size="32" font-weight="300">pharmacy</text>
  </g>
</svg>
